<svg width="126" height="126" viewBox="0 0 126 126" fill="none" xmlns="http://www.w3.org/2000/svg">
<path fill-rule="evenodd" clip-rule="evenodd" d="M94 40.5C94 46.299 89.299 51 83.5 51C77.701 51 73 46.299 73 40.5C73 34.701 77.701 30 83.5 30C89.299 30 94 34.701 94 40.5ZM92 40.5C92 45.1944 88.1944 49 83.5 49C78.8056 49 75 45.1944 75 40.5C75 35.8056 78.8056 32 83.5 32C88.1944 32 92 35.8056 92 40.5Z" fill="#111111" fill-opacity="0.8"/>
<path fill-rule="evenodd" clip-rule="evenodd" d="M124.995 2.12289L125.158 0.144287L123.21 0.528355C112.161 2.70705 100.944 5.8348 89.8944 10.7114C76.8227 16.4804 64.0052 24.6881 51.9811 36.6386C45.3738 35.6968 35.8542 37.2261 26.7658 40.7833C17.2969 44.4894 7.97367 50.5216 2.73719 58.6905L1.88109 60.026L24.9798 73.0711C24.0324 74.7775 23.0951 76.5232 22.1685 78.3092L21.6747 79.2611L44.5996 103.252L45.5267 102.905C47.6775 102.098 49.8136 101.198 51.9309 100.213L67.3098 125.042L68.6434 123.471C77.7139 112.788 82.7509 104.376 85.4974 96.4142C88.1806 88.6357 88.6379 81.3945 88.6581 73.1052C99.3669 61.9294 108.427 49.0316 114.846 35.9757C120.486 24.5047 124.112 12.8624 124.995 2.12289ZM27.8592 43.5769C35.6149 40.5414 43.4839 39.1263 49.2819 39.399C41.2274 47.8726 33.5657 58.0939 26.4556 70.4592L6.15783 58.996C11.0649 52.2028 19.2501 46.9465 27.8592 43.5769ZM67.6835 119.948L54.645 98.8974C65.7238 93.316 76.2513 85.4133 85.6255 76.1801C85.4873 83.047 84.859 89.0652 82.6614 95.4359C80.2095 102.544 75.7665 110.193 67.6835 119.948ZM113.07 32.748L93.1126 12.5905C102.607 8.59048 112.24 5.85804 121.809 3.87239C120.771 13.0122 117.72 22.8748 113.07 32.748ZM90.1639 13.8762L111.679 35.607C105.348 48.2167 96.5017 60.669 86.08 71.4579C75.8535 82.0447 64.142 90.9974 51.8479 96.9321C49.7125 97.9629 47.5603 98.9023 45.396 99.7432L25.3272 78.741C26.3151 76.8602 27.3144 75.0263 28.3249 73.2379C36.1508 59.387 44.6418 48.2679 53.5635 39.2987C65.1739 27.6264 77.5376 19.5708 90.1639 13.8762Z" fill="#111111" fill-opacity="0.8"/>
<path d="M18.0235 92.0966C18.6291 91.5313 18.6618 90.5822 18.0966 89.9765C17.5313 89.3709 16.5822 89.3382 15.9765 89.9034L0.976528 103.903C0.370902 104.469 0.338172 105.418 0.903423 106.023C1.46867 106.629 2.41786 106.662 3.02348 106.097L18.0235 92.0966Z" fill="#111111" fill-opacity="0.8"/>
<path d="M20.5774 106.044C21.1538 105.449 21.1387 104.499 20.5437 103.923C19.9487 103.346 18.9991 103.361 18.4226 103.956L2.92265 119.956C2.34623 120.551 2.3613 121.501 2.95631 122.077C3.55132 122.654 4.50095 122.639 5.07737 122.044L20.5774 106.044Z" fill="#111111" fill-opacity="0.8"/>
<path d="M36.0397 111.081C36.6368 110.507 36.6554 109.558 36.0813 108.96C35.5071 108.363 34.5575 108.345 33.9603 108.919L20.9603 121.419C20.3632 121.993 20.3446 122.943 20.9188 123.54C21.4929 124.137 22.4425 124.155 23.0397 123.581L36.0397 111.081Z" fill="#111111" fill-opacity="0.8"/>
</svg>
