<svg width="32" height="28" viewBox="0 0 32 28" fill="none" xmlns="http://www.w3.org/2000/svg">
<path d="M20 24C24.5 24.5 29.5 23.5 30 21.5C30.25 20.5 28.5 13.5 26 12.5M4 15C3 16.1667 1 19.3 1 22.5C1 28 21 28 21 22.5C21 20 20 16.5 18 15M15.9375 11.5638C16.9188 12.4408 18.273 13 20 13C28 13 28 1 20 1C17.6833 1 16.0374 2.00636 15.0625 3.4362M15.9375 11.5638C14.9626 12.9936 13.3167 14 11 14C3 14 3 2 11 2C12.727 2 14.0812 2.55921 15.0625 3.4362M15.9375 11.5638C17.6024 9.12204 17.3107 5.44527 15.0625 3.4362" stroke="black" stroke-width="2"/>
</svg>
